# xmcd CD database file
#
# Track frame offsets:
#	150
#	14604
#	26524
#	40124
#	56521
#	77821
#	97341
#	115098
#
# Disc length: 1751 seconds
#
# Revision: 0
# Processed by: cddbd v1.5.2PL0 Copyright (c) Steve Scherf et al.
# Submitted via: CDex 1.51
#
DISCID=6106d508
DTITLE=Compiliation - Casey Untitled Volume 2
DYEAR=2010
DGENRE=Country
TTITLE0=01 - Martin Cant - Gday
TTITLE1=02 - Sonyta Trahar - Take 2
TTITLE2=03 - Janelle Cuevas - This Feeling is Real
TTITLE3=04 - Cathy Dobson - Time To Walk Away
TTITLE4=05 - Doug Jeffreys - I'll See You Again
TTITLE5=06 - Nick Geronimo - Whatever Will I Do
TTITLE6=07 - Sabrina Lim-How - Expect the Unexpected
TTITLE7=08 - Jan Dandridge - Follow Your Dreams
EXTD=YEAR: 2010
EXTT0=
EXTT1=
EXTT2=
EXTT3=
EXTT4=
EXTT5=
EXTT6=
EXTT7=
PLAYORDER=
